<?xml version="1.0" encoding="utf-8"?>
<!-- Generator: Adobe Illustrator 16.0.0, SVG Export Plug-In . SVG Version: 6.00 Build 0)  -->
<!DOCTYPE svg PUBLIC "-//W3C//DTD SVG 1.1//EN" "http://www.w3.org/Graphics/SVG/1.1/DTD/svg11.dtd">
<svg version="1.1" id="Layer_1" xmlns="http://www.w3.org/2000/svg" xmlns:xlink="http://www.w3.org/1999/xlink" x="0px" y="0px"
	 width="364.951px" height="260.667px" viewBox="0 0 364.951 260.667" enable-background="new 0 0 364.951 260.667"
	 xml:space="preserve">
<g>
	<path fill-rule="evenodd" clip-rule="evenodd" fill="none" d="M380.226,270.008c-126.692,0-253.401,0-380.226,0
		C0,177.003,0,84.022,0-8.958 M173.144,199.605c-6.577,0-13.028,0-19.48,0c0,17.791,0,35.445,0,53.057c3.506,0,6.905,0,10.471,0
		c0-13.897,0-27.665,0-41.433c0.137-0.024,0.273-0.049,0.41-0.074c4.228,13.876,8.457,27.751,12.66,41.546c3.013,0,5.809,0,8.603,0
		c4.365-14.08,8.705-28.078,13.044-42.076c0.111,0.017,0.224,0.032,0.336,0.049c0,14.007,0,28.014,0,42.019
		c4.272,0,8.365,0,12.523,0c0-17.747,0-35.394,0-53.116c-6.553,0-13.014,0-19.496,0c-3.256,10.488-6.484,20.886-9.795,31.552
		C179.274,220.438,176.206,210.01,173.144,199.605z M274.263,156.453c4.228,0,8.206,0,12.264,0
		c2.76-11.431,5.502-22.789,8.245-34.147c0.113-0.001,0.228-0.003,0.341-0.004c2.849,11.383,5.697,22.766,8.546,34.147
		c4.194,0,8.23,0,12.368,0c4.464-17.737,8.909-35.403,13.369-53.127c-3.584,0-6.924,0-10.313,0
		c-2.736,11.762-5.449,23.425-8.162,35.087c-0.101-0.022-0.201-0.045-0.301-0.067c-2.938-11.691-5.876-23.383-8.816-35.082
		c-3.925,0-7.662,0-11.527,0c-2.866,11.69-5.731,23.375-8.597,35.059c-0.138-0.01-0.274-0.021-0.412-0.03
		c-2.652-11.701-5.305-23.402-7.938-35.018c-4.391,0-8.506,0-12.774,0C265.135,121.036,269.688,138.703,274.263,156.453z
		 M35.875,7.14c-2.894,11.828-5.749,23.497-8.605,35.167c-0.112,0.003-0.226,0.007-0.338,0.011
		c-2.655-11.711-5.31-23.422-7.959-35.107c-4.328,0-8.478,0-12.764,0c4.588,17.807,9.14,35.47,13.679,53.087
		c4.171,0,8.206,0,12.243,0c2.782-11.52,5.537-22.928,8.292-34.338c0.099,0.016,0.197,0.03,0.295,0.046
		c2.856,11.431,5.711,22.862,8.564,34.283c4.213,0,8.3,0,12.358,0C66.106,42.54,70.539,24.917,75,7.182c-3.499,0-6.844,0-10.312,0
		c-2.71,11.646-5.408,23.235-8.104,34.825c-0.128-0.011-0.255-0.022-0.383-0.032c-2.92-11.616-5.839-23.231-8.755-34.835
		C43.52,7.14,39.778,7.14,35.875,7.14z M238.918,60.346c-3.281-7.879-6.511-15.633-9.737-23.381
		c1.479-0.991,3.038-1.824,4.347-2.948c4.053-3.484,5.212-8.058,4.639-13.204c-0.592-5.319-4.503-11.981-12.036-13.081
		c-2.525-0.368-5.095-0.573-7.646-0.602c-7.187-0.082-14.375-0.033-21.563-0.036c-0.475,0-0.95,0-1.464,0
		c0,17.856,0,35.512,0,53.236c4.171,0,8.26,0,12.514,0c0-6.992,0-13.9,0-20.916c3.122,0,6.078,0,9,0
		c2.729,7.048,5.41,13.97,8.105,20.932C229.653,60.346,234.191,60.346,238.918,60.346z M134.712,229.344
		c1.561-1.057,3.13-1.888,4.422-3.031c4.553-4.03,5.559-9.24,4.195-14.874c-1.45-5.988-5.123-10.053-11.397-11.278
		c-1.77-0.346-3.589-0.592-5.388-0.608c-8.308-0.079-16.616-0.063-24.924-0.073c-0.224,0-0.448,0.083-0.653,0.123
		c0,17.758,0,35.406,0,53.109c4.183,0,8.274,0,12.596,0c0-7.028,0-13.978,0-20.931c3.141,0,6.05,0,8.934,0
		c2.741,7.073,5.438,14.032,8.125,20.966c4.652,0,9.142,0,13.837,0C141.182,244.88,137.953,237.124,134.712,229.344z
		 M280.794,231.762c3.127,0,5.983,0,8.89,0c2.724,7.038,5.418,14.003,8.097,20.925c4.648,0,9.174,0,13.85,0
		c-3.286-7.881-6.513-15.619-9.706-23.277c0.196-0.239,0.259-0.359,0.357-0.426c0.205-0.14,0.426-0.255,0.645-0.371
		c6.278-3.314,8.8-8.594,7.945-15.518c-0.64-5.181-4.214-11.675-11.74-12.927c-2.393-0.398-4.838-0.625-7.263-0.653
		c-7.434-0.087-14.868-0.043-22.303-0.039c-0.471,0.001-0.94,0.094-1.329,0.135c0,17.805,0,35.447,0,53.074c4.228,0,8.32,0,12.558,0
		C280.794,245.67,280.794,238.763,280.794,231.762z M167.899,103.25c0,17.806,0,35.467,0,53.192c3.243,0,6.396,0,9.619,0
		c0-11.722,0-23.334,0-34.947c0.084-0.031,0.169-0.063,0.254-0.093c6.792,11.686,13.583,23.371,20.357,35.026
		c3.625,0,7.143,0,10.653,0c0-17.778,0-35.434,0-53.089c-3.239,0-6.38,0-9.489,0c0,10.31,0,20.484,0,30.865
		c-6.028-10.402-11.991-20.691-17.939-30.954C176.85,103.25,172.482,103.25,167.899,103.25z M91.333,156.451
		c0-17.788,0-35.482,0-53.15c-4.111,0-8.085,0-12.291,0c0,6.917,0,13.74,0,20.536c-5.629,0-11.024,0-16.583,0
		c0-6.923,0-13.703,0-20.554c-4.132,0-8.099,0-12.136,0c0,17.778,0,35.477,0,53.161c4.077,0,8.046,0,12.154,0
		c0-7.264,0-14.423,0-21.669c5.594,0,11.046,0,16.648,0c0,7.269,0,14.423,0,21.676C83.248,156.451,87.224,156.451,91.333,156.451z
		 M286.095,7.225c-12.768,0-25.35,0-37.941,0c0,17.787,0,35.443,0,53.094c12.698,0,25.292,0,37.86,0c0-3.551,0-7.002,0-10.567
		c-8.433,0-16.724,0-25.014,0c0-3.889,0-7.66,0-11.608c6.663,0,13.189,0,19.724,0c0-3.402,0-6.622,0-10.02
		c-6.629,0-13.156,0-19.744,0c0-3.698,0-7.215,0-10.929c8.444,0,16.774,0,25.115,0C286.095,13.761,286.095,10.528,286.095,7.225z
		 M140.228,103.264c-12.75,0-25.296,0-37.922,0c0,17.756,0,35.46,0,53.145c12.714,0,25.298,0,37.896,0c0-3.494,0-6.846,0-10.387
		c-8.427,0-16.772,0-25.213,0c0-3.965,0-7.737,0-11.669c6.652,0,13.187,0,19.745,0c0-3.424,0-6.686,0-10.125
		c-6.673,0-13.202,0-19.725,0c0-3.707,0-7.232,0-10.926c8.482,0,16.826,0,25.218,0C140.228,109.901,140.228,106.672,140.228,103.264
		z M81.098,7.162c0,17.767,0,35.465,0,53.174c12.702,0,25.295,0,37.932,0c0-3.527,0-6.972,0-10.568c-8.486,0-16.833,0-25.164,0
		c0-3.927,0-7.698,0-11.647c6.666,0,13.191,0,19.69,0c0-3.404,0-6.625,0-10.031c-6.637,0-13.16,0-19.694,0c0-3.707,0-7.224,0-10.899
		c8.477,0,16.818,0,25.194,0c0-3.438,0-6.712,0-10.028C106.347,7.162,93.752,7.162,81.098,7.162z M219.856,103.247
		c0,17.864,0,35.564,0,53.174c12.713,0,25.299,0,37.874,0c0-3.531,0-6.926,0-10.491c-8.479,0-16.816,0-25.136,0
		c0-3.94,0-7.704,0-11.629c6.662,0,13.184,0,19.708,0c0-3.386,0-6.605,0-9.983c-6.617,0-13.146,0-19.761,0c0-3.687,0-7.215,0-10.975
		c8.449,0,16.833,0,25.203,0c0-3.507,0-6.782,0-10.096C245.07,103.247,232.526,103.247,219.856,103.247z M315.493,238.724
		c1.373,5.376,4.183,9.397,8.936,11.896c6.767,3.557,13.892,3.671,21.142,1.898c3.6-0.881,6.696-2.676,9.18-5.488
		c7.767-8.798,4.68-21.511-5.84-25.403c-3.029-1.121-6.25-1.722-9.374-2.591c-2.218-0.617-4.482-1.132-6.612-1.979
		c-1.712-0.681-2.433-2.284-2.362-4.122c0.067-1.793,1.013-3.014,2.654-3.748c5.27-2.355,11.121-0.218,13.554,4.966
		c0.074,0.159,0.219,0.284,0.418,0.535c3.447-1.162,6.909-2.329,10.396-3.505c-1.859-5.182-5.069-8.918-10.018-10.768
		c-5.887-2.2-11.995-2.563-18.006-0.514c-6.093,2.077-10.041,6.347-11.004,12.793c-1.217,8.153,1.63,13.254,8.428,16.093
		c2.579,1.077,5.3,1.83,7.984,2.635c2.686,0.805,5.431,1.412,8.104,2.255c1.768,0.558,3.006,1.743,3.213,3.747
		c0.219,2.105-0.709,3.654-2.399,4.735c-0.824,0.527-1.8,1.054-2.738,1.117c-2.227,0.15-4.509,0.279-6.699-0.048
		c-3.398-0.508-5.729-2.599-6.985-5.829c-0.15-0.385-0.321-0.762-0.516-1.22C323.141,237.025,319.442,237.847,315.493,238.724z
		 M176.139,60.293c4.524,0,8.906,0,13.446,0c-5.572-17.812-11.094-35.466-16.617-53.123c-4.924,0-9.719,0-14.571,0
		c-5.687,17.725-11.357,35.397-17.061,53.174c3.727,0,7.326,0,11.01,0c1.113-3.654,2.214-7.268,3.297-10.821
		c5.877,0,11.54,0,17.248,0C173.993,53.18,175.071,56.753,176.139,60.293z M63.957,199.524
		c-5.702,17.801-11.359,35.461-17.021,53.139c3.776,0,7.375,0,10.949,0c1.119-3.682,2.202-7.246,3.276-10.781
		c5.858,0,11.524,0,17.259,0c1.118,3.675,2.218,7.289,3.284,10.791c4.563,0,8.896,0,13.394,0
		c-5.575-17.812-11.103-35.475-16.635-53.148C73.589,199.524,68.851,199.524,63.957,199.524z M11.125,199.538
		c0,17.766,0,35.463,0,53.143c4.336,0,8.556,0,12.913,0c0-6.945,0-13.787,0-20.816c6.595,0,13.053,0,19.528,0
		c0-3.393,0-6.593,0-9.918c-6.55,0-12.962,0-19.457,0c0-4.021,0-7.914,0-12.019c8.297,0,16.494,0,24.677,0c0-3.6,0-6.987,0-10.39
		C36.163,199.538,23.687,199.538,11.125,199.538z M31.663,156.445c0-14.218,0-28.367,0-42.687c4.465,0,8.75,0,13.122,0
		c0-3.572,0-6.974,0-10.403c-13.094,0-26.094,0-39.065,0c0,3.506,0,6.859,0,10.452c4.404,0,8.725,0,13.17,0
		c0,14.337,0,28.434,0,42.638C23.174,156.445,27.326,156.445,31.663,156.445z M221.822,242.703c0,3.563,0,6.95,0,10.322
		c12.729,0,25.312,0,37.909,0c0-3.502,0-6.892,0-10.322C247.055,242.703,234.515,242.703,221.822,242.703z M259.812,220.755
		c-12.763,0-25.343,0-38.034,0c0,3.468,0,6.803,0,10.198c12.726,0,25.353,0,38.034,0
		C259.812,227.509,259.812,224.209,259.812,220.755z M259.762,199.959c-12.731,0-25.319,0-37.976,0c0,3.333,0,6.545,0,9.882
		c12.703,0,25.287,0,37.976,0C259.762,206.56,259.762,203.341,259.762,199.959z"/>
	<path fill-rule="evenodd" clip-rule="evenodd" fill="#030303" d="M173.144,199.605c3.062,10.404,6.13,20.833,9.275,31.522
		c3.311-10.666,6.539-21.063,9.795-31.552c6.482,0,12.943,0,19.496,0c0,17.723,0,35.369,0,53.116c-4.158,0-8.251,0-12.523,0
		c0-14.005,0-28.012,0-42.019c-0.112-0.017-0.225-0.032-0.336-0.049c-4.34,13.998-8.68,27.996-13.044,42.076
		c-2.794,0-5.59,0-8.603,0c-4.203-13.795-8.432-27.67-12.66-41.546c-0.136,0.025-0.273,0.05-0.41,0.074c0,13.768,0,27.535,0,41.433
		c-3.566,0-6.964,0-10.471,0c0-17.611,0-35.266,0-53.057C160.116,199.605,166.567,199.605,173.144,199.605z"/>
	<path fill-rule="evenodd" clip-rule="evenodd" fill="#030303" d="M274.263,156.453c-4.575-17.75-9.128-35.417-13.707-53.183
		c4.269,0,8.384,0,12.774,0c2.633,11.616,5.285,23.317,7.938,35.018c0.138,0.01,0.274,0.021,0.412,0.03
		c2.865-11.684,5.73-23.369,8.597-35.059c3.865,0,7.603,0,11.527,0c2.94,11.699,5.878,23.391,8.816,35.082
		c0.1,0.022,0.2,0.045,0.301,0.067c2.713-11.663,5.426-23.325,8.162-35.087c3.389,0,6.729,0,10.313,0
		c-4.46,17.724-8.905,35.39-13.369,53.127c-4.138,0-8.174,0-12.368,0c-2.849-11.382-5.697-22.765-8.546-34.147
		c-0.113,0.001-0.228,0.003-0.341,0.004c-2.743,11.358-5.485,22.716-8.245,34.147C282.469,156.453,278.491,156.453,274.263,156.453z
		"/>
	<path fill-rule="evenodd" clip-rule="evenodd" fill="#030303" d="M35.875,7.14c3.903,0,7.645,0,11.57,0
		c2.916,11.604,5.835,23.219,8.755,34.835c0.127,0.01,0.255,0.021,0.383,0.032c2.697-11.59,5.394-23.18,8.104-34.825
		c3.468,0,6.813,0,10.312,0c-4.461,17.735-8.894,35.357-13.358,53.106c-4.058,0-8.145,0-12.358,0
		c-2.853-11.421-5.708-22.852-8.564-34.283c-0.098-0.016-0.197-0.03-0.295-0.046c-2.755,11.41-5.51,22.818-8.292,34.338
		c-4.037,0-8.072,0-12.243,0c-4.539-17.617-9.09-35.28-13.679-53.087c4.286,0,8.436,0,12.764,0
		c2.649,11.686,5.304,23.396,7.959,35.107c0.112-0.003,0.226-0.007,0.338-0.011C30.126,30.637,32.981,18.968,35.875,7.14z"/>
	<path fill-rule="evenodd" clip-rule="evenodd" fill="#030303" d="M238.918,60.346c-4.728,0-9.266,0-13.842,0
		c-2.695-6.962-5.376-13.884-8.105-20.932c-2.922,0-5.878,0-9,0c0,7.015,0,13.923,0,20.916c-4.254,0-8.343,0-12.514,0
		c0-17.724,0-35.38,0-53.236c0.514,0,0.989,0,1.464,0c7.188,0.003,14.376-0.045,21.563,0.036c2.552,0.029,5.121,0.234,7.646,0.602
		c7.533,1.099,11.444,7.761,12.036,13.081c0.573,5.146-0.586,9.72-4.639,13.204c-1.309,1.124-2.867,1.958-4.347,2.948
		C232.408,44.713,235.637,52.466,238.918,60.346z M208.048,30.105c3.326,0,6.441,0.029,9.557-0.017
		c0.99-0.015,2.003-0.127,2.96-0.372c3.086-0.788,5.035-3.729,4.817-7.135c-0.199-3.121-2.338-5.487-5.572-5.749
		c-3.106-0.25-6.238-0.189-9.358-0.256c-0.789-0.017-1.579-0.002-2.403-0.002C208.048,21.183,208.048,25.54,208.048,30.105z"/>
	<path fill-rule="evenodd" clip-rule="evenodd" fill="#030303" d="M134.712,229.344c3.241,7.78,6.47,15.536,9.747,23.402
		c-4.695,0-9.186,0-13.837,0c-2.687-6.934-5.384-13.893-8.125-20.966c-2.884,0-5.793,0-8.934,0c0,6.953,0,13.902,0,20.931
		c-4.322,0-8.414,0-12.596,0c0-17.703,0-35.352,0-53.109c0.205-0.04,0.429-0.123,0.653-0.123c8.308,0.011,16.616-0.006,24.924,0.073
		c1.799,0.017,3.619,0.263,5.388,0.608c6.274,1.226,9.948,5.29,11.397,11.278c1.364,5.634,0.358,10.844-4.195,14.874
		C137.842,227.456,136.273,228.287,134.712,229.344z M113.604,222.513c2.929,0,5.783,0.041,8.634-0.019
		c1.302-0.027,2.636-0.11,3.892-0.42c3.096-0.766,4.988-3.698,4.769-7.152c-0.198-3.123-2.332-5.475-5.584-5.715
		c-3.356-0.247-6.736-0.189-10.106-0.25c-0.535-0.009-1.072,0.061-1.605,0.094C113.604,213.585,113.604,217.938,113.604,222.513z"/>
	<path fill-rule="evenodd" clip-rule="evenodd" fill="#030303" d="M280.794,231.762c0,7.001,0,13.908,0,20.923
		c-4.237,0-8.33,0-12.558,0c0-17.627,0-35.27,0-53.074c0.389-0.041,0.858-0.134,1.329-0.135c7.435-0.004,14.869-0.048,22.303,0.039
		c2.425,0.028,4.87,0.255,7.263,0.653c7.526,1.252,11.101,7.746,11.74,12.927c0.854,6.924-1.667,12.203-7.945,15.518
		c-0.219,0.116-0.439,0.231-0.645,0.371c-0.099,0.066-0.161,0.187-0.357,0.426c3.193,7.658,6.42,15.396,9.706,23.277
		c-4.676,0-9.201,0-13.85,0c-2.679-6.922-5.373-13.887-8.097-20.925C286.778,231.762,283.921,231.762,280.794,231.762z
		 M280.839,222.533c2.623,0,5.106,0.018,7.588-0.007c1.248-0.013,2.501-0.041,3.74-0.172c2.266-0.238,3.952-1.43,5.103-3.375
		c2.118-3.581,0.239-9.104-3.551-9.578c-4.23-0.53-8.541-0.428-12.88-0.604C280.839,213.522,280.839,217.878,280.839,222.533z"/>
	<path fill-rule="evenodd" clip-rule="evenodd" fill="#030303" d="M167.899,103.25c4.583,0,8.951,0,13.455,0
		c5.948,10.263,11.911,20.552,17.939,30.954c0-10.381,0-20.556,0-30.865c3.109,0,6.25,0,9.489,0c0,17.655,0,35.311,0,53.089
		c-3.511,0-7.028,0-10.653,0c-6.773-11.655-13.565-23.34-20.357-35.026c-0.084,0.031-0.169,0.062-0.254,0.093
		c0,11.613,0,23.226,0,34.947c-3.223,0-6.376,0-9.619,0C167.899,138.717,167.899,121.056,167.899,103.25z"/>
	<path fill-rule="evenodd" clip-rule="evenodd" fill="#030303" d="M91.333,156.451c-4.108,0-8.084,0-12.208,0
		c0-7.253,0-14.407,0-21.676c-5.602,0-11.054,0-16.648,0c0,7.246,0,14.405,0,21.669c-4.108,0-8.077,0-12.154,0
		c0-17.685,0-35.383,0-53.161c4.038,0,8.004,0,12.136,0c0,6.851,0,13.631,0,20.554c5.559,0,10.954,0,16.583,0
		c0-6.796,0-13.62,0-20.536c4.205,0,8.179,0,12.291,0C91.333,120.969,91.333,138.663,91.333,156.451z"/>
	<path fill-rule="evenodd" clip-rule="evenodd" fill="#020202" d="M286.095,7.225c0,3.303,0,6.537,0,9.969
		c-8.341,0-16.671,0-25.115,0c0,3.714,0,7.231,0,10.929c6.588,0,13.115,0,19.744,0c0,3.398,0,6.618,0,10.02
		c-6.534,0-13.061,0-19.724,0c0,3.949,0,7.719,0,11.608c8.29,0,16.581,0,25.014,0c0,3.565,0,7.017,0,10.567
		c-12.568,0-25.162,0-37.86,0c0-17.651,0-35.307,0-53.094C260.746,7.225,273.328,7.225,286.095,7.225z"/>
	<path fill-rule="evenodd" clip-rule="evenodd" fill="#020202" d="M140.228,103.264c0,3.408,0,6.637,0,10.039
		c-8.393,0-16.736,0-25.218,0c0,3.694,0,7.219,0,10.926c6.523,0,13.052,0,19.725,0c0,3.438,0,6.701,0,10.125
		c-6.558,0-13.093,0-19.745,0c0,3.932,0,7.704,0,11.669c8.441,0,16.786,0,25.213,0c0,3.541,0,6.893,0,10.387
		c-12.599,0-25.182,0-37.896,0c0-17.685,0-35.389,0-53.145C114.932,103.264,127.478,103.264,140.228,103.264z"/>
	<path fill-rule="evenodd" clip-rule="evenodd" fill="#020202" d="M81.098,7.162c12.654,0,25.249,0,37.958,0
		c0,3.315,0,6.59,0,10.028c-8.376,0-16.718,0-25.194,0c0,3.676,0,7.192,0,10.899c6.534,0,13.057,0,19.694,0
		c0,3.406,0,6.627,0,10.031c-6.499,0-13.024,0-19.69,0c0,3.949,0,7.721,0,11.647c8.331,0,16.678,0,25.164,0
		c0,3.596,0,7.041,0,10.568c-12.637,0-25.23,0-37.932,0C81.098,42.627,81.098,24.929,81.098,7.162z"/>
	<path fill-rule="evenodd" clip-rule="evenodd" fill="#030303" d="M219.856,103.247c12.67,0,25.214,0,37.889,0
		c0,3.314,0,6.589,0,10.096c-8.37,0-16.754,0-25.203,0c0,3.76,0,7.288,0,10.975c6.615,0,13.144,0,19.761,0c0,3.377,0,6.597,0,9.983
		c-6.524,0-13.046,0-19.708,0c0,3.925,0,7.688,0,11.629c8.319,0,16.656,0,25.136,0c0,3.565,0,6.96,0,10.491
		c-12.575,0-25.161,0-37.874,0C219.856,138.812,219.856,121.111,219.856,103.247z"/>
	<path fill-rule="evenodd" clip-rule="evenodd" fill="#030303" d="M315.493,238.724c3.949-0.877,7.648-1.698,11.454-2.543
		c0.194,0.458,0.365,0.835,0.516,1.22c1.257,3.23,3.587,5.321,6.985,5.829c2.19,0.327,4.473,0.198,6.699,0.048
		c0.938-0.063,1.914-0.59,2.738-1.117c1.69-1.081,2.618-2.63,2.399-4.735c-0.207-2.004-1.445-3.189-3.213-3.747
		c-2.673-0.843-5.418-1.45-8.104-2.255c-2.685-0.805-5.405-1.558-7.984-2.635c-6.798-2.839-9.645-7.939-8.428-16.093
		c0.963-6.446,4.911-10.716,11.004-12.793c6.011-2.049,12.119-1.687,18.006,0.514c4.948,1.85,8.158,5.586,10.018,10.768
		c-3.487,1.176-6.949,2.343-10.396,3.505c-0.199-0.251-0.344-0.376-0.418-0.535c-2.433-5.184-8.284-7.321-13.554-4.966
		c-1.642,0.734-2.587,1.955-2.654,3.748c-0.07,1.838,0.65,3.441,2.362,4.122c2.13,0.847,4.395,1.361,6.612,1.979
		c3.124,0.869,6.345,1.47,9.374,2.591c10.52,3.893,13.606,16.605,5.84,25.403c-2.483,2.813-5.58,4.607-9.18,5.488
		c-7.25,1.772-14.375,1.658-21.142-1.898C319.675,248.121,316.866,244.1,315.493,238.724z"/>
	<path fill-rule="evenodd" clip-rule="evenodd" fill="#030303" d="M176.139,60.293c-1.068-3.54-2.146-7.113-3.249-10.771
		c-5.708,0-11.371,0-17.248,0c-1.083,3.553-2.184,7.167-3.297,10.821c-3.684,0-7.283,0-11.01,0
		c5.704-17.776,11.374-35.449,17.061-53.174c4.853,0,9.647,0,14.571,0c5.523,17.657,11.045,35.312,16.617,53.123
		C185.044,60.293,180.663,60.293,176.139,60.293z M169.874,39.394c-1.833-6.049-3.593-11.861-5.354-17.674
		c-0.132,0.015-0.265,0.03-0.397,0.045c-1.779,5.839-3.558,11.679-5.371,17.629C162.591,39.394,166.136,39.394,169.874,39.394z"/>
	<path fill-rule="evenodd" clip-rule="evenodd" fill="#030303" d="M63.957,199.524c4.895,0,9.633,0,14.506,0
		c5.532,17.674,11.06,35.337,16.635,53.148c-4.497,0-8.831,0-13.394,0c-1.066-3.502-2.166-7.116-3.284-10.791
		c-5.735,0-11.401,0-17.259,0c-1.074,3.535-2.158,7.1-3.276,10.781c-3.575,0-7.173,0-10.949,0
		C52.598,234.985,58.254,217.325,63.957,199.524z M70.071,213.92c-0.132-0.011-0.263-0.021-0.395-0.03
		c-1.8,5.93-3.601,11.859-5.431,17.886c3.817,0,7.438,0,11.194,0C73.614,225.705,71.842,219.813,70.071,213.92z"/>
	<path fill-rule="evenodd" clip-rule="evenodd" fill="#030303" d="M11.125,199.538c12.562,0,25.038,0,37.661,0
		c0,3.402,0,6.79,0,10.39c-8.184,0-16.38,0-24.677,0c0,4.104,0,7.997,0,12.019c6.495,0,12.907,0,19.457,0c0,3.325,0,6.525,0,9.918
		c-6.475,0-12.933,0-19.528,0c0,7.029,0,13.871,0,20.816c-4.357,0-8.576,0-12.913,0C11.125,235.001,11.125,217.304,11.125,199.538z"
		/>
	<path fill-rule="evenodd" clip-rule="evenodd" fill="#030303" d="M31.663,156.445c-4.337,0-8.489,0-12.773,0
		c0-14.204,0-28.301,0-42.638c-4.445,0-8.767,0-13.17,0c0-3.592,0-6.945,0-10.452c12.972,0,25.972,0,39.065,0
		c0,3.43,0,6.831,0,10.403c-4.372,0-8.657,0-13.122,0C31.663,128.078,31.663,142.228,31.663,156.445z"/>
	<path fill-rule="evenodd" clip-rule="evenodd" fill="#4573C4" d="M221.822,242.703c12.693,0,25.233,0,37.909,0
		c0,3.431,0,6.82,0,10.322c-12.598,0-25.18,0-37.909,0C221.822,249.653,221.822,246.266,221.822,242.703z"/>
	<path fill-rule="evenodd" clip-rule="evenodd" fill="#93D053" d="M259.812,220.755c0,3.454,0,6.754,0,10.198
		c-12.682,0-25.309,0-38.034,0c0-3.396,0-6.73,0-10.198C234.469,220.755,247.049,220.755,259.812,220.755z"/>
	<path fill-rule="evenodd" clip-rule="evenodd" fill="#C744C1" d="M259.762,199.959c0,3.382,0,6.601,0,9.882
		c-12.688,0-25.272,0-37.976,0c0-3.337,0-6.549,0-9.882C234.443,199.959,247.031,199.959,259.762,199.959z"/>
	<path fill-rule="evenodd" clip-rule="evenodd" fill="none" d="M208.048,30.105c0-4.566,0-8.922,0-13.53
		c0.824,0,1.614-0.015,2.403,0.002c3.12,0.067,6.252,0.005,9.358,0.256c3.234,0.261,5.373,2.628,5.572,5.749
		c0.218,3.406-1.731,6.347-4.817,7.135c-0.957,0.245-1.97,0.357-2.96,0.372C214.49,30.135,211.375,30.105,208.048,30.105z"/>
	<path fill-rule="evenodd" clip-rule="evenodd" fill="none" d="M113.604,222.513c0-4.575,0-8.928,0-13.462
		c0.534-0.033,1.07-0.103,1.605-0.094c3.37,0.061,6.75,0.003,10.106,0.25c3.252,0.24,5.386,2.592,5.584,5.715
		c0.219,3.454-1.673,6.387-4.769,7.152c-1.256,0.31-2.59,0.393-3.892,0.42C119.386,222.554,116.532,222.513,113.604,222.513z"/>
	<path fill-rule="evenodd" clip-rule="evenodd" fill="none" d="M280.839,222.533c0-4.655,0-9.011,0-13.735
		c4.339,0.176,8.649,0.073,12.88,0.604c3.79,0.475,5.669,5.997,3.551,9.578c-1.15,1.945-2.837,3.137-5.103,3.375
		c-1.239,0.131-2.492,0.159-3.74,0.172C285.946,222.551,283.462,222.533,280.839,222.533z"/>
	<path fill-rule="evenodd" clip-rule="evenodd" fill="none" d="M169.874,39.394c-3.738,0-7.283,0-11.122,0
		c1.813-5.95,3.592-11.79,5.371-17.629c0.132-0.015,0.265-0.03,0.397-0.045C166.281,27.533,168.042,33.345,169.874,39.394z"/>
	<path fill-rule="evenodd" clip-rule="evenodd" fill="none" d="M70.071,213.92c1.771,5.893,3.543,11.785,5.369,17.855
		c-3.756,0-7.377,0-11.194,0c1.83-6.026,3.63-11.956,5.431-17.886C69.808,213.899,69.939,213.909,70.071,213.92z"/>
</g>
</svg>
