<svg width="54" height="28" viewBox="0 0 54 28" fill="none" xmlns="http://www.w3.org/2000/svg">
<path fill-rule="evenodd" clip-rule="evenodd" d="M39.0422 28H14.086C6.30646 28 0 21.732 0 14C0 6.26797 6.30646 0 14.086 0H39.0422C46.8217 0 53.1282 6.26797 53.1282 14C53.1282 21.732 46.8217 28 39.0422 28Z" fill="#C45955"/>
<path fill-rule="evenodd" clip-rule="evenodd" d="M36.8205 15.0198C36.8205 16.5643 36.1348 17.3475 34.7821 17.3475C33.4678 17.3475 32.7437 16.5544 32.7437 15.1153V10.2097H31.8923V15.1512C31.8923 17.0268 32.9682 18.147 34.7705 18.147C36.5873 18.147 37.6719 16.9822 37.6719 15.0319V10.2097H36.8205V15.0198Z" fill="white"/>
<path fill-rule="evenodd" clip-rule="evenodd" d="M40.741 11.0213H42.2158C43.4249 11.0213 44.0384 11.463 44.0384 12.3343C44.0384 13.1939 43.3301 13.7068 42.1437 13.7068H40.741V11.0213ZM42.3717 17.2155H40.741V14.5184H42.1437C43.9081 14.5184 44.278 15.2131 44.278 15.7955C44.278 16.7512 43.6546 17.2155 42.3717 17.2155ZM43.8017 14.0362C44.5566 13.6669 44.9014 12.9496 44.9014 12.2984C44.9014 11.5186 44.556 10.2097 42.2396 10.2097H39.8779V18.0277H42.3594C44.1274 18.0277 45.1416 17.2184 45.1416 15.8076C45.1416 14.9619 44.6519 14.3297 43.8017 14.0362Z" fill="white"/>
<path fill-rule="evenodd" clip-rule="evenodd" d="M39.1647 2.21362H29.2311H28.7565H28.7112L28.7117 13.6705H24.3466V10.163H23.4952L23.4957 24.7703H13.9634C7.94721 24.7703 3.05281 19.8983 3.05281 13.9096C3.05281 7.92095 7.94721 3.04897 13.9634 3.04897H26.521V2.21362H13.9634C7.48487 2.21362 2.21362 7.46015 2.21362 13.9096C2.21362 20.3585 7.48487 25.6056 13.9634 25.6056H23.8022H23.8476H24.3466V14.5175H28.7117V18.0244H29.5626V3.04897H39.1647C45.1809 3.04897 50.0753 7.92095 50.0753 13.9096C50.0753 19.8983 45.1809 24.7703 39.1647 24.7703H26.6408V25.6056H39.1647C45.6432 25.6056 50.9145 20.3585 50.9145 13.9096C50.9145 7.46015 45.6432 2.21362 39.1647 2.21362Z" fill="white"/>
<path fill-rule="evenodd" clip-rule="evenodd" d="M6.09424 12.1634H7.94069V16.8843H8.71765V12.1634H10.5641V11.423H6.09424V12.1634Z" fill="white"/>
<path fill-rule="evenodd" clip-rule="evenodd" d="M15.4273 13.7792H12.5951V11.4231H11.8181V16.8838H12.5951V14.5028H15.4273V16.8838H16.2042V11.4231H15.4273V13.7792Z" fill="white"/>
<path fill-rule="evenodd" clip-rule="evenodd" d="M21.1807 12.1549V11.4232H17.7681V16.8839H21.1807V16.1522H18.545V14.511H20.7439V13.788H18.545V12.1549H21.1807Z" fill="white"/>
</svg>
