<svg id="Layer_1" data-name="Layer 1" xmlns="http://www.w3.org/2000/svg" viewBox="0 0 305.2 107.71"><defs><style>.cls-1{fill:#15d4ff;}.cls-2{isolation:isolate;}</style></defs><title>logo-blue</title><rect class="cls-1" x="44.2" width="6.8" height="20.5"/><polygon class="cls-1" points="16.4 8.2 11.5 13 26 27.6 30.8 22.7 16.4 8.2"/><polygon class="cls-1" points="78.9 8.2 64.5 22.7 69.3 27.6 83.8 13 78.9 8.2"/><path class="cls-1" d="M47.6,28.2A20.44,20.44,0,0,0,27.2,48.7V83H20.4v6.8H74.8V83H68V48.7A20.38,20.38,0,0,0,47.6,28.2Z"/><rect class="cls-1" y="41.1" width="20.4" height="6.8"/><rect class="cls-1" x="74.9" y="41.1" width="20.4" height="6.8"/><rect class="cls-1" x="34.2" y="86.89" width="6.8" height="20.5" transform="translate(-9.75 4.36) rotate(-5.88)"/><rect class="cls-1" x="47.22" y="93.77" width="20.5" height="6.8" transform="translate(-45.07 144.38) rotate(-84.12)"/><g class="cls-2"><path class="cls-1" d="M121.8,45.3V86h24.8v3.6h-29V45.3Z"/><path class="cls-1" d="M154.1,45.3v6.3h-3.9V45.3Zm0,12.3v32h-3.9v-32Z"/></g><g class="cls-2"><path class="cls-1" d="M186.6,93.4a12.06,12.06,0,0,1-2.4,4.8,10.78,10.78,0,0,1-4.4,3,19.64,19.64,0,0,1-11.3.5,16.81,16.81,0,0,1-4.1-1.7,10.71,10.71,0,0,1-3-3,8.82,8.82,0,0,1-1.4-4.4h3.9a6.77,6.77,0,0,0,1.2,3,7,7,0,0,0,2.2,2,8.62,8.62,0,0,0,2.8,1.1,16.55,16.55,0,0,0,3.2.3c3.6,0,6.3-1,7.9-3.1s2.4-5,2.4-8.9V82.7h-.1a11,11,0,0,1-4,4.8,10.77,10.77,0,0,1-6.2,1.8,14.67,14.67,0,0,1-6.6-1.3,11.94,11.94,0,0,1-4.5-3.5,15,15,0,0,1-2.6-5.2,22,22,0,0,1-.8-6.4,17.92,17.92,0,0,1,1-6.2,14,14,0,0,1,2.8-5.1,13,13,0,0,1,4.5-3.5,15.25,15.25,0,0,1,6.2-1.3,12.7,12.7,0,0,1,3.4.5,9.75,9.75,0,0,1,2.9,1.4,11.5,11.5,0,0,1,2.3,2.1,9.63,9.63,0,0,1,1.6,2.5h.1V57.8h3.9V87A30.85,30.85,0,0,1,186.6,93.4Zm-9-8.6a8.93,8.93,0,0,0,3.2-2.9,13.06,13.06,0,0,0,2-4.1,18.42,18.42,0,0,0,.7-4.7,18.93,18.93,0,0,0-.6-4.7,15,15,0,0,0-1.8-4.3,9.49,9.49,0,0,0-3.2-3.1,8.88,8.88,0,0,0-4.7-1.2,10,10,0,0,0-4.8,1.1,11.84,11.84,0,0,0-3.3,3,12.34,12.34,0,0,0-1.9,4.2,19.93,19.93,0,0,0-.6,4.9,18.35,18.35,0,0,0,.6,4.7,14,14,0,0,0,1.9,4.1,11.5,11.5,0,0,0,3.3,2.9,9.89,9.89,0,0,0,4.7,1.1A7.51,7.51,0,0,0,177.6,84.8Z"/><path class="cls-1" d="M195.7,45.3V63.1h.1a9.53,9.53,0,0,1,4-4.7,11.56,11.56,0,0,1,6.3-1.8,15.28,15.28,0,0,1,5.6.9,8.28,8.28,0,0,1,5.5,6.3,19.83,19.83,0,0,1,.6,5.1V89.5h-3.9v-20a15.29,15.29,0,0,0-.4-3.8,7.85,7.85,0,0,0-1.3-3.1,5.46,5.46,0,0,0-2.5-2,9.37,9.37,0,0,0-3.9-.7,10.84,10.84,0,0,0-4.2.8,9,9,0,0,0-3.1,2.3,11.87,11.87,0,0,0-2,3.5,15,15,0,0,0-.8,4.4V89.6h-3.9V45.3Z"/><path class="cls-1" d="M234.8,57.6v3.3h-6.5V82.5a7.75,7.75,0,0,0,.5,3c.4.7,1.2,1.1,2.6,1.2,1.1,0,2.2-.1,3.3-.2v3.3a9.15,9.15,0,0,0-1.7.1c-.6,0-1.2.1-1.7.1-2.6,0-4.4-.5-5.5-1.5s-1.5-2.9-1.5-5.6v-22h-5.6V57.6h5.6V48h3.9v9.6Z"/></g><g class="cls-2"><path class="cls-1" d="M241.6,45.3V72.7a20.39,20.39,0,0,0,.9,6.5,11.05,11.05,0,0,0,2.5,4.4,10.09,10.09,0,0,0,4.1,2.5,19.31,19.31,0,0,0,11,0,9.12,9.12,0,0,0,4.1-2.5,10,10,0,0,0,2.5-4.4,24.26,24.26,0,0,0,.9-6.5V45.3h4.2V73.6a20.09,20.09,0,0,1-1,6.5,16.72,16.72,0,0,1-3,5.4,13.48,13.48,0,0,1-5.3,3.6,20.41,20.41,0,0,1-7.9,1.3,19.88,19.88,0,0,1-7.8-1.3,15.54,15.54,0,0,1-5.3-3.6,13,13,0,0,1-3-5.4,22.68,22.68,0,0,1-1-6.5V45.3Z"/><path class="cls-1" d="M279.2,57.6v6.1h.1a10.69,10.69,0,0,1,4.4-5.2,13.51,13.51,0,0,1,7-1.8,14.36,14.36,0,0,1,6.4,1.4,12.45,12.45,0,0,1,4.5,3.7,15.23,15.23,0,0,1,2.7,5.4,22.69,22.69,0,0,1,.9,6.5,23.2,23.2,0,0,1-.9,6.5,17.11,17.11,0,0,1-2.7,5.4,13.55,13.55,0,0,1-4.5,3.7,16.08,16.08,0,0,1-9.9.9,11.32,11.32,0,0,1-3.2-1.3,10.57,10.57,0,0,1-4.4-5.2h-.1v17.9h-3.9v-44Zm21.4,11.1a13.35,13.35,0,0,0-1.9-4.4,9.41,9.41,0,0,0-8.1-4.3,12.67,12.67,0,0,0-5.4,1.1,9.22,9.22,0,0,0-3.5,3,11,11,0,0,0-1.8,4.3,22.38,22.38,0,0,0-.5,5.2,19.93,19.93,0,0,0,.6,4.9,13.35,13.35,0,0,0,1.9,4.4,9.58,9.58,0,0,0,3.5,3.1,10.52,10.52,0,0,0,5.2,1.2,9,9,0,0,0,4.8-1.2,10.82,10.82,0,0,0,3.3-3.1,14.65,14.65,0,0,0,1.9-4.4,20.53,20.53,0,0,0,.6-4.9A19.93,19.93,0,0,0,300.6,68.7Z"/></g></svg>